<?xml version="1.0" encoding="iso-8859-1"?>
<!-- Generator: Adobe Illustrator 19.0.0, SVG Export Plug-In . SVG Version: 6.00 Build 0)  -->
<svg version="1.1" id="Capa_1" xmlns="http://www.w3.org/2000/svg" xmlns:xlink="http://www.w3.org/1999/xlink" x="0px" y="0px"
	 viewBox="0 0 512 512" style="enable-background:new 0 0 512 512;" xml:space="preserve">
<g>
	<g>
		<path d="M504.5,410.66c4.143,0,7.5-3.358,7.5-7.5v-10.16c0-55.719-36.162-101.05-80.61-101.05h-4.376
			c13.544-13.382,23.948-29.929,30.005-48.429c21.874-0.808,39.422-18.848,39.422-40.921c0-15.887-9.39-30.444-23.645-37.111
			c1.12-6.554,1.917-13.728,2.073-21.286c0.604-29.323-8.598-69.808-55.868-96.154c-46.499-25.914-86.52-22.342-111.901-14.784
			c-8.155,2.429-15.812,5.601-22.76,9.183V23.731c0-4.142-3.357-7.5-7.5-7.5H7.5c-4.142,0-7.5,3.358-7.5,7.5v180.87
			c0,3.034,1.827,5.768,4.63,6.929c0.928,0.384,1.902,0.571,2.869,0.571c1.952,0,3.87-0.762,5.305-2.197l36.393-36.394h68.934
			c4.142,0,7.5-3.358,7.5-7.5c0-4.142-3.358-7.5-7.5-7.5H46.09c-1.989,0-3.897,0.79-5.303,2.197L15,186.494V31.231h254.34v20.305
			c-7.857,5.571-14.016,11.435-17.902,16.736c-5.324,1.059-15.203,3.732-24.897,10.065H142.17c-4.142,0-7.5,3.358-7.5,7.5
			c0,4.142,3.358,7.5,7.5,7.5h68.709c-4.471,6.364-8.002,14.28-9.73,24.124H142.17c-4.142,0-7.5,3.358-7.5,7.5
			c0,4.142,3.358,7.5,7.5,7.5h57.791c-0.053,9.41,0.794,18.112,2.519,26.049h-52.61c-4.142,0-7.5,3.358-7.5,7.5
			c0,4.142,3.358,7.5,7.5,7.5h50.02c-7.628,7.568-12.16,17.997-12.16,29.09c0,22.073,17.548,40.113,39.421,40.921
			c6.056,18.5,16.46,35.047,30.003,48.429h-4.374c-44.448,0-80.61,45.331-80.61,101.05v95.27c0,4.142,3.358,7.5,7.5,7.5H504.5
			c4.143,0,7.5-3.358,7.5-7.5v-53.43c0-4.142-3.357-7.5-7.5-7.5s-7.5,3.358-7.5,7.5v45.93h-8.615v-99.863
			c0-37.102-30.185-67.286-67.286-67.286h-10.205c0.745-2.178,1.39-4.402,1.927-6.671h18.569c36.178,0,65.61,38.602,65.61,86.05
			v10.16C497,407.303,500.357,410.66,504.5,410.66z M462.815,199.867c1.165-2.666,3.977-9.529,6.6-19.137
			c7.346,4.707,12.025,12.952,12.025,21.871c0,12.429-8.779,22.841-20.458,25.369c1.315-7.13,2.008-14.475,2.008-21.979
			C462.99,203.944,462.919,201.9,462.815,199.867z M262.357,78.898c2.546-4.301,8.819-10.69,18.134-16.909
			c0.293-0.164,0.571-0.35,0.838-0.55c25.725-16.816,73.657-31.894,130.369-0.286c32.577,18.157,48.788,45.839,48.183,82.277
			c-0.241,14.468-3.186,27.601-5.992,36.952c-7.119-8.374-17.143-14.033-30.282-17.153c-11.521-2.735-24.543-3.375-38.413-3.375
			c-5.997,0-12.154,0.12-18.415,0.241c-29.884,0.584-60.791,1.183-86.155-10.639c-11.718-5.462-19.495-14.166-23.113-25.869
			C252.069,105.981,257.427,87.215,262.357,78.898z M202.73,202.601c0-7.732,3.469-14.961,9.209-19.821
			c2.693,4.334,5.943,8.385,9.786,11.755c-0.358,3.813-0.545,7.65-0.545,11.457c0,7.505,0.693,14.849,2.008,21.979
			C211.509,225.442,202.73,215.03,202.73,202.601z M226.15,177.112c-1.395-1.981-2.841-4.422-4.219-7.345
			c-0.111-0.235-0.224-0.45-0.334-0.691c0,0-0.001-0.001-0.001-0.002c0,0,0-0.001-0.001-0.001
			c-4.84-10.63-7.053-24.054-6.579-39.899c0.503-16.95,7.056-29.766,19.475-38.093c2.944-1.974,5.921-3.493,8.713-4.674
			c-3.422,12.291-4.393,27.485-0.026,41.61c1.439,4.655,3.41,8.987,5.858,12.978c-7.578,6.466-13.926,15.201-18.902,26.058
			C228.497,170.619,227.188,174.041,226.15,177.112z M421.099,328.621c28.831,0,52.286,23.456,52.286,52.286v99.863h-17.928v-33.334
			c0-4.142-3.357-7.5-7.5-7.5s-7.5,3.358-7.5,7.5v33.334H243.713v-33.334c0-4.142-3.358-7.5-7.5-7.5c-4.142,0-7.5,3.358-7.5,7.5
			v33.334h-17.969c-0.237-10.035-0.226-21.323,0.039-31.274c0.11-4.141-3.157-7.587-7.298-7.697
			c-4.143-0.069-7.586,3.157-7.697,7.298c-0.272,10.228-0.286,21.383-0.047,31.674h-8.57v-87.771c0-47.448,29.433-86.05,65.61-86.05
			h18.57c0.492,2.079,1.077,4.119,1.744,6.122c-20.819-0.707-38.836,4.643-53.649,15.97c-0.043,0.033-0.087,0.067-0.129,0.101
			c-25.13,20.104-24.345,51.796-23.715,77.261c0.079,3.211,0.154,6.243,0.186,9.25c0.042,4.116,3.392,7.422,7.498,7.422
			c0.026,0,0.053,0,0.079,0c4.142-0.043,7.465-3.435,7.422-7.577c-0.032-3.115-0.112-6.344-0.189-9.466
			c-0.604-24.417-1.229-49.666,18.027-65.126c13.61-10.377,30.868-14.524,51.296-12.329c0.174,0.019,0.345,0.022,0.517,0.029
			c12.976,20.672,36.029,34.278,61.65,34.278c25.615,0,48.663-13.6,61.641-34.264H421.099z M290.08,315.122
			c15.76,7.54,33.395,11.768,52,11.768c18.609,0,36.248-4.229,52.011-11.771c-9.402,19.484-29.449,32.766-52.006,32.766
			C319.529,347.885,299.483,334.605,290.08,315.122z M342.079,311.892c-58.392-0.001-105.899-47.507-105.899-105.901
			c0-3.737,0.209-7.507,0.602-11.244c0.302-0.595,0.526-1.23,0.655-1.899c0.011-0.057,0.03-0.111,0.039-0.168
			c0-0.001,0.002-0.01,0.002-0.011v-0.002c0-0.001,0.004-0.022,0.005-0.027c0.08-0.455,1.667-9.271,6.284-19.333
			c4.009-8.747,8.974-15.69,14.789-20.718c4.498,4.161,9.758,7.678,15.73,10.462c28.515,13.291,62.657,12.628,92.783,12.041
			c43.09-0.837,70.364-0.114,80.652,23.628c0.167,2.398,0.268,4.834,0.268,7.272C447.989,264.386,400.478,311.892,342.079,311.892z"
			/>
	</g>
</g>
<g>
	<g>
		<path d="M392.516,212.096h-1.208c-4.143,0-7.5,3.358-7.5,7.5c0,4.142,3.357,7.5,7.5,7.5h1.208c4.143,0,7.5-3.358,7.5-7.5
			C400.016,215.454,396.659,212.096,392.516,212.096z"/>
	</g>
</g>
<g>
	<g>
		<path d="M292.861,212.096h-1.208c-4.143,0-7.5,3.358-7.5,7.5c0,4.142,3.358,7.5,7.5,7.5h1.208c4.143,0,7.5-3.358,7.5-7.5
			C300.361,215.454,297.004,212.096,292.861,212.096z"/>
	</g>
</g>
<g>
	<g>
		<path d="M377.654,254.988c-2.362-3.391-7.033-4.223-10.429-1.875c-1.099,0.759-27.199,18.37-53.331,0.017
			c-3.39-2.382-8.067-1.563-10.448,1.827c-2.381,3.389-1.562,8.067,1.827,10.447c11.869,8.336,23.659,11.115,34.112,11.115
			c20.262,0,35.487-10.448,36.438-11.115C379.204,263.03,380.015,258.378,377.654,254.988z"/>
	</g>
</g>
<g>
	<g>
		<path d="M392.15,382.366H292.02c-4.143,0-7.5,3.358-7.5,7.5v29.759c0,4.142,3.357,7.5,7.5,7.5h100.13c4.143,0,7.5-3.358,7.5-7.5
			v-29.759C399.65,385.725,396.293,382.366,392.15,382.366z M384.651,412.126L384.651,412.126H299.52v-14.759h85.131V412.126z"/>
	</g>
</g>
<g>
	<g>
		<path d="M227.252,49.337h-25.539c-4.142,0-7.5,3.358-7.5,7.5c0,4.142,3.358,7.5,7.5,7.5h25.539c4.142,0,7.5-3.358,7.5-7.5
			C234.752,52.694,231.394,49.337,227.252,49.337z"/>
	</g>
</g>
<g>
	<g>
		<path d="M113.418,80.302c-0.764-2.353-2.64-4.177-5.012-4.876L87.55,69.278L75.258,51.343c-1.398-2.041-3.713-3.26-6.187-3.26
			s-4.788,1.22-6.187,3.26L50.593,69.278l-20.856,6.148c-2.373,0.699-4.248,2.523-5.012,4.876c-0.765,2.353-0.32,4.931,1.188,6.892
			l13.26,17.233l-0.598,21.735c-0.068,2.473,1.087,4.82,3.089,6.273c1.299,0.944,2.846,1.433,4.409,1.433
			c0.845,0,1.695-0.143,2.512-0.434l20.487-7.285l20.486,7.285c2.329,0.83,4.919,0.455,6.921-0.999
			c2.001-1.454,3.157-3.801,3.089-6.274l-0.598-21.735l13.259-17.233C113.738,85.232,114.183,82.654,113.418,80.302z M85.456,97.393
			c-1.052,1.367-1.6,3.055-1.553,4.779l0.37,13.462l-12.688-4.512c-1.625-0.578-3.4-0.578-5.025,0l-12.688,4.512l0.37-13.462
			c0.047-1.724-0.501-3.412-1.553-4.78l-8.212-10.673l12.917-3.808c1.655-0.488,3.091-1.531,4.066-2.954l7.613-11.108l7.613,11.108
			c0.975,1.423,2.411,2.466,4.066,2.954l12.917,3.808L85.456,97.393z"/>
	</g>
</g>
<g>
</g>
<g>
</g>
<g>
</g>
<g>
</g>
<g>
</g>
<g>
</g>
<g>
</g>
<g>
</g>
<g>
</g>
<g>
</g>
<g>
</g>
<g>
</g>
<g>
</g>
<g>
</g>
<g>
</g>
</svg>
